<svg width="601" height="356" viewBox="0 0 601 356" fill="none" xmlns="http://www.w3.org/2000/svg">
<path d="M15.2559 226.235C18.8037 220.772 25.1022 213.406 34.1516 204.138C43.3215 194.869 51.7297 187.295 59.3763 181.415C61.4086 179.944 63.3796 178.413 65.2897 176.823C67.1996 175.233 68.6317 174.01 69.586 173.155C70.6607 172.298 71.1377 171.871 71.017 171.872C71.0123 171.511 69.8585 170.985 67.5556 170.294C65.2527 169.603 62.0438 168.863 57.9288 168.076C53.8124 167.168 49.2742 166.327 44.3145 165.551C35.8467 164.22 29.6139 163.04 25.6167 162.01C21.7382 160.859 18.5807 159.457 16.1442 157.805C10.9058 154.264 8.34721 148.04 8.46856 139.133C8.58828 130.105 11.3608 120.861 16.7861 111.401C22.8019 100.971 30.5252 91.8413 39.9562 84.0125C49.506 76.0619 58.3772 71.4901 66.5696 70.2972C69.5804 69.7755 72.4821 70.0977 75.2741 71.2637C78.0646 72.3094 80.2589 73.9046 81.8572 76.0496C83.5759 78.1929 84.4533 80.5881 84.489 83.2353C84.5491 87.6873 81.4946 93.9264 75.3256 101.952C69.2774 109.976 63.4374 115.53 57.8054 118.614C53.9708 120.712 51.565 121.346 50.5881 120.516C49.7303 119.565 50.1382 118.476 51.8117 117.25C57.6703 113.08 63.0376 108.254 67.9127 102.773C72.9073 97.1705 76.163 92.4332 77.6801 88.5615C78.8416 85.1763 79.1084 82.5853 78.4808 80.7885C77.9735 78.9899 76.4454 77.5662 73.8963 76.5172C68.9203 74.5382 62.3606 75.9499 54.2167 80.7526C46.0713 85.435 38.3156 92.1579 30.9495 100.922C23.5817 109.565 18.5071 118.178 15.7257 126.76C14.2199 131.474 13.6194 136.176 13.924 140.865C14.0755 143.15 14.2793 144.832 14.5353 145.912C14.7913 146.991 15.1663 147.949 15.6604 148.785C16.1529 149.5 16.9504 150.452 18.0529 151.641C20.1338 153.779 23.0531 155.425 26.8109 156.578C30.5685 157.732 36.6796 158.853 45.1444 159.943C53.8521 161.15 60.1442 162.27 64.0211 163.301C67.8976 164.332 72.2057 166.019 76.9453 168.363L86.9958 161.729C103.272 151.281 111.434 147.802 111.481 151.292C111.494 152.254 109.222 153.91 104.667 156.257C100.47 158.36 92.51 163.34 80.7859 171.2C82.8668 173.338 84.275 174.824 85.0105 175.656C85.7461 176.489 86.5485 177.802 87.4175 179.595C88.2869 181.389 89.0417 183.666 89.6825 186.425C91.0977 192.905 89.5731 200.688 85.1083 209.774C80.7661 218.979 73.9544 228.577 64.6734 238.57C54.2001 249.662 43.7482 257.867 33.3177 263.182C24.0846 267.757 16.9212 269.176 11.8279 267.441C8.67363 266.278 6.48089 264.804 5.24964 263.016C4.0184 261.226 3.38005 258.647 3.33464 255.277C3.24057 248.299 7.21433 238.618 15.2559 226.235ZM80.7047 178.602C78.6188 176.103 77.2139 174.858 76.4897 174.868C75.2826 174.884 70.3823 178.5 61.788 185.716C53.1955 193.052 45.8035 199.89 39.6119 206.231C27.8222 218.184 19.2174 229.07 13.7969 238.891C8.37645 248.712 7.08176 255.648 9.91285 259.702C10.7755 261.016 11.6309 261.785 12.479 262.016C13.3271 262.244 15.4996 262.217 18.9964 261.928C21.8897 261.65 24.2375 261.196 26.0399 260.569C27.9643 260.063 29.4047 259.441 30.3605 258.707C31.4386 258.09 32.0984 257.782 32.3396 257.779C42.8812 251.74 53.0288 243.36 62.7828 232.638C72.5369 221.917 79.0428 212.021 82.3005 202.952C83.93 198.477 84.5934 193.955 84.2903 189.386C83.9888 184.937 82.7936 181.342 80.7047 178.602ZM154.108 116.421C153.544 119.317 152.779 120.772 151.813 120.785C151.089 120.794 150.594 119.898 150.328 118.097C150.182 116.173 150.273 114.006 150.603 111.594C151.052 109.061 151.687 106.946 152.509 105.25C153.919 102.343 155.811 99.4293 158.185 96.5091C160.681 93.5874 163.121 91.0272 165.506 88.829C167.89 86.6309 170.158 84.6749 172.307 82.9611C174.578 81.2458 176.431 79.8972 177.866 78.9152C179.421 77.8111 180.257 77.1984 180.376 77.0763C182.206 60.5639 184.75 52.2859 188.009 52.2423C188.974 52.2295 189.463 52.7043 189.476 53.6668C189.489 54.6295 188.989 57.8255 187.976 63.2547C186.847 69.0465 186.406 72.1214 186.652 72.4791C187.017 72.715 189.959 71.5322 195.476 68.9309C211.425 61.0149 224.054 57.6565 233.365 58.8556C242.677 60.0547 247.943 65.6404 249.163 75.6132C249.858 82.3433 247.803 91.0962 242.999 101.871C238.195 112.647 232.047 122.237 224.555 130.641C222.179 133.441 221.352 134.776 222.074 134.646C222.436 134.641 223.399 134.388 224.961 133.885C233.137 131.489 241.027 130.24 248.631 130.138C253.215 129.957 256.356 130.035 258.051 130.373C259.743 130.591 261.622 131.228 263.689 132.283C269.525 135.455 272.968 140.042 274.014 146.045C274.28 147.847 274.597 148.926 274.964 149.282C275.331 149.638 275.995 149.689 276.958 149.436C282.247 147.8 286.763 147.078 290.507 147.268C294.372 147.337 296.316 148.274 296.341 150.079C296.351 150.801 296.055 151.226 295.451 151.354C294.971 151.481 293.884 151.435 292.192 151.217C291.946 150.86 291.038 150.812 289.474 151.073C288.025 151.213 287.062 151.286 286.579 151.293C286.217 151.298 285.194 151.492 283.509 151.875C281.945 152.257 280.982 152.511 280.622 152.636C280.26 152.761 279.239 153.076 277.557 153.58C275.993 153.962 275.09 154.214 274.851 154.338L274.192 159.221C273.556 165.849 270.589 173.952 265.285 183.531C259.982 193.109 253.937 201.374 247.15 208.325C238.698 217.103 230.095 223.657 221.341 227.986C212.708 232.314 205.663 233.552 200.206 231.7C195.719 230.195 192.492 228.132 190.525 225.511C188.68 222.888 187.725 219.29 187.664 214.718C187.544 205.814 193.751 196.163 206.286 185.765C218.941 175.366 236.313 165.566 258.4 156.364C263.321 154.252 266.319 152.828 267.395 152.091C268.592 151.353 269.183 150.322 269.165 148.999C269.148 147.675 268.766 146.236 268.021 144.681C267.395 143.125 266.472 141.693 265.248 140.386C264.141 138.957 262.919 137.83 261.579 137.005C257.93 134.888 251.706 134.43 242.911 135.631C234.234 136.71 224.852 139.182 214.764 143.048C207.558 145.792 204.061 146.08 204.273 143.911C204.379 142.826 205.507 141.367 207.655 139.533C217.438 130.977 224.753 122.936 229.601 115.41C236.343 105.09 240.68 95.5241 242.614 86.7128C244.666 77.7795 243.915 71.3507 240.362 67.4269C239.378 66.1163 238.281 65.2884 237.069 64.9437C235.978 64.5972 233.682 64.3874 230.18 64.3139C226.918 64.1169 224.203 64.2134 222.036 64.6035C219.868 64.9936 216.803 65.9372 212.839 67.4347C206.23 69.6895 196.933 74.0262 184.949 80.445L184.471 85.3255C180.114 120.285 178.104 154.792 178.443 188.846C178.702 208.099 178.409 217.73 177.565 217.742C175.996 217.763 174.911 213.384 174.31 204.607C173.831 195.948 173.748 185.359 174.062 172.838C174.495 160.196 175.048 147.492 175.721 134.726C176.393 121.839 177.089 110.818 177.811 101.662C178.531 92.3853 179.005 87.2642 179.233 86.2984C179.462 85.3325 179.455 84.8511 179.214 84.8544C178.61 84.8624 175.741 86.9468 170.607 91.1074C166.069 94.7788 162.322 98.8607 159.364 103.353C156.526 107.724 154.774 112.08 154.108 116.421ZM254.173 191.984C257.135 187.852 260.025 182.759 262.839 176.703C265.776 170.647 267.642 165.748 268.436 162.006C269.115 158.747 269.331 156.939 269.088 156.582C268.846 156.585 263.925 158.757 254.327 163.098C230.332 174.13 212.801 185.497 201.732 197.199C195.779 203.296 192.844 209.413 192.926 215.55C192.952 217.475 193.153 218.917 193.528 219.875C194.023 220.831 195.066 222.08 196.656 223.624C198.491 225.404 199.893 226.408 200.862 226.636C201.832 226.984 204.066 227.014 207.562 226.727C210.577 226.446 212.985 225.992 214.787 225.367C216.589 224.741 219.227 223.442 222.702 221.469C227.371 218.639 232.805 214.294 239.003 208.434C245.322 202.573 250.379 197.089 254.173 191.984ZM279.108 178.832C278.766 180.401 278.233 181.191 277.509 181.201C275.336 181.23 275.367 178.882 277.597 174.159C277.713 173.917 277.891 173.613 278.128 173.249C280.595 168.161 285.408 162.621 292.569 156.628C299.852 150.513 308.228 145.045 317.698 140.225C321.774 138.124 324.229 136.647 325.064 135.793C326.017 134.938 326.957 133.12 327.885 130.34C329.851 123.935 332.821 115.772 336.792 105.85C340.881 95.9265 345.1 86.4225 349.443 77.3383C353.786 68.1337 357.316 61.3469 360.032 56.9778C363.105 52.1227 365.733 49.9814 367.913 50.5538C370.214 51.1249 371.949 54.4111 373.116 60.413C373.898 64.6148 375.366 84.0313 377.524 118.663C384.63 117.485 390.595 116.803 395.421 116.618C398.559 116.576 400.553 116.67 401.401 116.899C402.369 117.127 402.919 117.661 403.053 118.501C403.183 119.342 403.07 119.825 402.708 119.95C402.469 120.074 401.745 120.023 400.536 119.799C399.323 119.574 397.033 119.665 393.658 120.072C390.404 120.476 387.213 121.06 384.085 121.824C381.075 122.467 379.332 123.031 378.857 123.519C378.261 124.129 378.475 130.986 379.495 144.09C380.516 157.074 381.922 171.918 383.718 188.623C385.634 205.446 387.444 218.901 389.149 228.987C390.61 238.716 392.28 246.155 394.158 251.306C396.293 257.416 396.698 260.477 395.37 260.497C394.767 260.504 393.972 259.792 392.987 258.361C390.029 253.948 387.032 241.893 383.989 222.197C380.946 202.5 377.464 172.52 373.541 132.256C373.133 128.771 372.741 126.67 372.371 125.953C372.12 125.234 371.454 125.063 370.372 125.438C356.788 129.712 343.151 134.528 329.464 139.886C323.96 161.382 319.116 182.689 314.935 203.806C312.89 213.341 311.266 218.177 310.059 218.313C309.697 218.318 309.269 217.963 308.779 217.247C308.037 216.054 309.302 206.95 312.573 189.937C315.845 172.924 319.207 158.016 322.654 145.213C322.881 144.127 322.813 143.586 322.451 143.591C321.968 143.597 319.871 144.649 316.157 146.744C311.962 149.087 307.116 152.221 301.617 156.146C297.548 158.848 292.896 162.882 287.656 168.247C282.536 173.491 279.687 177.019 279.108 178.832ZM366.932 58.3296C366.316 57.3749 364.652 59.2627 361.938 63.9928C359.343 68.4804 355.699 75.6899 351.005 85.6215C347.836 92.4033 343.916 101.663 339.246 113.399C334.574 125.015 332.245 131.425 332.263 132.628C332.265 132.748 332.628 132.744 333.349 132.614C334.192 132.362 335.213 132.047 336.415 131.67C337.737 131.291 339.06 130.852 340.38 130.353C345.545 128.479 356.424 125.023 373.015 119.987L371.119 100.335C369.439 74.2421 368.044 60.2402 366.932 58.3296ZM413.634 231.548C409.998 230.393 406.04 227.738 401.758 223.583C397.478 219.428 394.219 215.079 391.986 210.536C389.003 204.318 386.876 198.57 385.596 193.291C384.442 188.132 383.682 181.042 383.318 172.02C382.822 162.038 382.885 153.252 383.506 145.661C384.248 138.069 385.767 129.745 388.058 120.688C393.316 98.7141 401.159 80.5568 411.587 66.2158C418.223 56.9803 425.071 50.089 432.132 45.5415C439.193 40.9939 445.507 39.3448 451.077 40.5938C456.645 41.7227 460.681 45.6402 463.188 52.3461C464.938 56.8961 465.391 63.6897 464.548 72.7271C463.703 81.6444 462.142 86.8402 459.869 88.3148C457.714 89.5471 456.675 88.7187 456.758 85.8291C456.861 84.6242 457.143 83.1162 457.603 81.3047C458.508 76.96 459.109 72.3187 459.406 67.3803C460.017 59.068 458.79 53.0671 455.722 49.3772C452.775 45.5655 448.535 44.4792 443.003 46.1178C437.473 47.7564 431.373 51.9302 424.704 58.6385C410.891 72.6639 400.769 92.1153 394.347 116.993C392.853 122.67 391.714 127.74 390.93 132.203C390.142 136.546 389.539 141.007 389.119 145.586C388.817 150.163 388.588 155.522 388.43 161.662C388.289 169.125 388.302 174.481 388.465 177.728C388.749 180.974 389.345 184.817 390.251 189.258C394.48 207.614 402.007 219.608 412.825 225.24C418.54 228.293 421.377 228.315 421.337 225.307C421.329 224.705 421.726 222.895 422.531 219.875C423.456 216.854 424.555 213.409 425.833 209.541C427.11 205.793 428.503 201.803 430.017 197.57C431.529 193.338 432.929 189.709 434.217 186.683C441.934 168.166 449.008 155.735 455.44 149.391C461.875 143.047 467.903 142.545 473.528 147.885C478.665 152.871 480.697 160.305 479.624 170.188C478.668 179.949 474.768 190.592 467.923 202.117C462.725 210.731 456.544 217.855 449.377 223.487C442.331 229.117 435.554 232.217 429.044 232.785C425.908 233.068 424.045 233.695 423.454 234.666C422.866 235.757 422.488 239.071 422.322 244.61C422.224 246.416 422 247.683 421.648 248.41C421.417 249.135 420.879 249.563 420.037 249.695C419.071 249.828 418.523 249.354 418.387 248.273C418.374 247.31 418.465 245.082 418.659 241.59L419.091 233.28L413.634 231.548ZM426.004 222.356L424.45 227.792C428.672 227.736 432.645 226.961 436.369 225.466C442.372 223.099 448.935 217.536 456.061 208.775C463.306 200.013 468.441 191.339 471.464 182.754C472.975 178.401 473.938 173.875 474.358 169.176C474.778 164.476 474.547 160.809 473.666 158.173C472.663 155.418 471.428 153.269 469.957 151.724C468.486 150.059 466.967 149.236 465.398 149.258C462.381 149.298 458.385 152.842 453.411 159.889C448.555 166.934 443.609 176.147 438.572 187.527C433.535 198.907 429.346 210.517 426.004 222.356ZM564.261 122.84C564.018 122.603 553.974 125.204 534.128 130.646C514.283 135.966 504.182 138.809 503.825 139.175C502.869 140.03 500.842 159.734 497.739 198.288C496.602 212.384 495.755 221.181 495.199 224.678C494.762 228.174 493.947 230.291 492.75 231.029C491.91 231.402 491.126 231.532 490.401 231.422C489.795 231.31 489.179 230.475 488.556 228.919C487.932 227.483 487.303 225.566 486.667 223.168C486.033 220.889 485.266 217.65 484.364 213.45C482.563 205.17 480.904 198.513 479.387 193.479C477.871 188.565 475.492 182.218 472.248 174.439C469.007 166.78 467.599 160.842 468.026 156.624C468.572 152.404 470.996 148.581 475.296 145.154C479.596 141.846 487.396 138.372 498.695 134.731C503.651 90.6166 507.765 64.4458 511.034 56.2182C511.733 54.4036 512.621 53.0077 513.694 52.0304C514.768 51.0534 515.611 50.8614 516.222 51.4551C516.468 51.9332 515.628 56.7585 513.7 65.9307C512.573 71.8428 510.682 83.7829 508.026 101.75C505.492 119.716 504.239 129.782 504.27 131.948C504.285 133.031 513.496 131.283 531.903 126.704C550.428 122.002 560.653 119.278 562.574 118.53C563.776 118.153 564.608 117.179 565.069 115.609C565.531 114.038 566.261 109.876 567.256 103.123C571.461 74.7846 577.096 54.1296 584.165 41.1574C588.05 33.7641 591.394 31.2521 594.203 33.6215C596.399 35.2769 596.114 36.6648 593.353 37.7849C589.994 39.1538 585.882 47.7537 581.027 63.5844C576.289 79.2933 573.06 94.9217 571.338 110.47C571.011 113.001 570.91 114.507 571.036 114.987C571.285 115.465 571.951 115.697 573.038 115.682C574.969 115.656 575.939 116.004 575.95 116.726C575.96 117.448 575.064 118.242 573.266 119.109C571.705 119.852 570.752 120.707 570.402 121.675C570.053 122.642 569.61 125.476 569.069 130.177C566.706 151.872 565.184 186.853 564.508 235.122C564.256 252.336 563.708 260.948 562.866 260.958C562.021 260.971 561.402 259.955 561.013 257.914C560.241 254.314 560.225 235.3 560.967 200.87C561.832 166.439 562.79 143.439 563.842 131.872C564.365 125.968 564.505 122.957 564.261 122.84ZM488.626 207.255C489.934 214.7 490.816 217.576 491.276 215.885C491.392 215.402 491.503 214.739 491.613 213.895C491.81 210.643 492.373 203.113 493.301 191.307C494.229 179.62 495.114 169.198 495.956 160.041C496.799 150.883 497.387 145.279 497.721 143.228C498.068 142.141 498.061 141.539 497.696 141.423C497.452 141.186 496.668 141.196 495.345 141.455C492.456 142.216 488.918 143.767 484.723 146.11C480.65 148.331 477.838 150.234 476.289 151.819C474.149 154.255 473.161 156.976 473.322 159.983C473.604 162.868 475.238 167.72 478.225 174.54C483.212 186.267 486.68 197.172 488.626 207.255Z" fill="#2C395F"/>
<path d="M32.1678 252.005C31.6908 253.54 31.0913 254.279 30.3691 254.227C28.2022 254.066 28.4363 251.73 31.0709 247.219C31.2092 246.988 31.4122 246.701 31.6795 246.359C34.5819 241.505 39.8626 236.405 47.5217 231.058C55.3101 225.599 64.133 220.881 73.9901 216.903C78.2343 215.165 80.8091 213.907 81.7141 213.129C82.7393 212.36 83.8362 210.631 85.004 207.942C87.5229 201.732 91.194 193.858 96.0179 184.32C100.962 174.79 105.995 165.689 111.117 157.017C116.249 148.225 120.359 141.772 123.449 137.655C126.935 133.086 129.739 131.182 131.861 131.942C134.104 132.711 135.544 136.135 136.182 142.216C136.592 146.469 136.356 165.94 135.474 200.627C142.656 200.071 148.659 199.911 153.483 200.147C156.613 200.377 158.59 200.644 159.415 200.947C160.36 201.257 160.861 201.838 160.919 202.686C160.977 203.536 160.821 204.007 160.451 204.1C160.202 204.202 159.484 204.089 158.298 203.76C157.112 203.431 154.82 203.322 151.423 203.434C148.146 203.554 144.916 203.858 141.733 204.347C138.679 204.725 136.894 205.136 136.377 205.581C135.73 206.136 135.342 212.986 135.213 226.129C135.093 239.152 135.196 254.061 135.522 270.858C135.959 287.783 136.586 301.347 137.402 311.543C138.004 321.36 139.016 328.917 140.438 334.211C142.03 340.481 142.164 343.568 140.84 343.47C140.238 343.427 139.509 342.65 138.653 341.138C136.094 336.483 134.161 324.213 132.854 304.327C131.548 284.442 130.702 254.274 130.318 213.821C130.215 210.314 130.01 208.188 129.703 207.441C129.515 206.703 128.867 206.474 127.756 206.754C113.851 209.83 99.8457 213.442 85.7398 217.589C78.3751 238.524 71.6859 259.329 65.6722 280.002C62.8012 289.323 60.7596 293.998 59.5467 294.028C59.1856 294.003 58.7911 293.61 58.3631 292.855C57.7302 291.602 59.7874 282.644 64.535 265.98C69.2829 249.316 73.9348 234.757 78.4908 222.303C78.8119 221.241 78.7918 220.696 78.4307 220.669C77.9492 220.634 75.767 221.498 71.8836 223.263C67.5013 225.232 62.3989 227.933 56.5764 231.364C52.2877 233.702 47.2989 237.316 41.6103 242.205C36.0509 246.983 32.9033 250.251 32.1678 252.005ZM130.203 139.602C129.672 138.598 127.849 140.334 124.733 144.809C121.755 149.054 117.493 155.919 111.947 165.405C108.198 171.885 103.483 180.768 97.8035 192.054C92.1328 203.219 89.2527 209.402 89.1637 210.602C89.1547 210.722 89.516 210.749 90.247 210.682C91.1075 210.504 92.1529 210.279 93.3836 210.008C94.7342 209.746 96.0896 209.424 97.4495 209.042C102.759 207.624 113.898 205.128 130.866 201.554L130.699 181.812C131.309 155.672 131.144 141.602 130.203 139.602ZM135.506 195.38C134.69 198.216 133.801 199.598 132.838 199.527C132.116 199.474 131.701 198.538 131.594 196.72C131.616 194.791 131.897 192.64 132.436 190.267C133.105 187.782 133.923 185.731 134.891 184.113C136.549 181.339 138.689 178.601 141.31 175.899C144.052 173.205 146.707 170.867 149.275 168.884C151.843 166.902 154.272 165.151 156.564 163.631C158.976 162.119 160.94 160.937 162.456 160.083C164.101 159.119 164.988 158.581 165.117 158.47C168.385 142.18 171.644 134.155 174.893 134.395C175.857 134.466 176.302 134.981 176.231 135.941C176.16 136.902 175.382 140.042 173.897 145.362C172.266 151.034 171.557 154.059 171.771 154.436C172.114 154.703 175.148 153.781 180.873 151.669C197.453 145.171 210.328 142.924 219.499 144.928C228.669 146.933 233.427 152.955 233.77 162.996C233.873 169.761 231.06 178.301 225.331 188.618C219.602 198.934 212.639 207.953 204.44 215.674C201.828 218.256 200.887 219.514 201.618 219.447C201.979 219.474 202.96 219.305 204.561 218.941C212.915 217.265 220.884 216.707 228.468 217.267C233.051 217.484 236.172 217.835 237.83 218.32C239.498 218.684 241.315 219.482 243.281 220.713C248.818 224.38 251.844 229.25 252.362 235.321C252.471 237.139 252.689 238.241 253.024 238.628C253.358 239.015 254.017 239.124 254.998 238.955C260.409 237.786 264.973 237.459 268.687 237.974C272.53 238.379 274.383 239.481 274.25 241.281C274.197 242.001 273.865 242.399 273.254 242.474C272.764 242.559 271.685 242.419 270.018 242.054C269.804 241.677 268.904 241.55 267.322 241.674C265.869 241.688 264.9 241.677 264.42 241.641C264.058 241.615 263.022 241.719 261.309 241.955C259.718 242.199 258.737 242.368 258.367 242.461C257.998 242.555 256.952 242.779 255.232 243.135C253.64 243.379 252.719 243.553 252.471 243.655L251.386 248.462C250.174 255.009 246.507 262.823 240.386 271.904C234.265 280.984 227.52 288.694 220.15 295.026C210.962 303.036 201.818 308.818 192.719 312.368C183.74 315.928 176.613 316.549 171.34 314.228C167.002 312.34 163.968 310.003 162.238 307.221C160.628 304.448 159.993 300.78 160.332 296.22C160.991 287.34 168.019 278.267 181.416 268.998C194.934 259.74 213.096 251.486 235.905 244.242C240.992 242.566 244.104 241.408 245.24 240.768C246.498 240.137 247.175 239.161 247.273 237.841C247.371 236.521 247.117 235.054 246.511 233.441C246.025 231.836 245.229 230.33 244.123 228.921C243.147 227.401 242.028 226.172 240.766 225.234C237.316 222.807 231.156 221.809 222.289 222.241C213.551 222.561 203.988 224.208 193.6 227.181C186.181 229.288 182.673 229.271 183.074 227.128C183.275 226.057 184.525 224.701 186.826 223.061C197.32 215.389 205.312 208.015 210.8 200.939C218.418 191.245 223.576 182.093 226.274 173.483C229.1 164.763 228.915 158.293 225.718 154.075C224.853 152.684 223.832 151.764 222.655 151.315C221.599 150.875 219.33 150.466 215.847 150.088C212.615 149.609 209.902 149.468 207.709 149.668C205.516 149.869 202.379 150.542 198.3 151.689C191.519 153.36 181.878 156.872 169.377 162.224L168.474 167.044C161.074 201.491 156.053 235.692 153.41 269.645C151.983 288.846 150.849 298.416 150.006 298.356C148.441 298.238 147.744 293.783 147.913 284.988C148.193 276.319 149.038 265.764 150.447 253.317C151.985 240.761 153.647 228.153 155.435 215.495C157.231 202.716 158.89 191.797 160.41 182.739C161.939 173.56 162.859 168.5 163.171 167.557C163.483 166.615 163.519 166.135 163.278 166.117C162.676 166.073 159.636 167.9 154.157 171.598C149.315 174.861 145.225 178.601 141.886 182.819C138.676 186.926 136.549 191.113 135.506 195.38ZM228.576 279.357C231.889 275.499 235.212 270.678 238.547 264.889C242.002 259.113 244.289 254.395 245.408 250.737C246.371 247.549 246.745 245.766 246.531 245.389C246.291 245.371 241.199 247.107 231.257 250.596C206.389 259.499 187.93 269.299 175.879 279.992C169.415 285.55 165.956 291.386 165.501 297.508C165.358 299.429 165.432 300.88 165.722 301.868C166.132 302.863 167.062 304.2 168.511 305.874C170.182 307.807 171.491 308.93 172.436 309.241C173.372 309.672 175.595 309.898 179.104 309.916C182.131 309.898 184.569 309.655 186.419 309.189C188.27 308.722 191.011 307.657 194.645 305.995C199.544 303.58 205.338 299.725 212.025 294.427C218.833 289.137 224.35 284.113 228.576 279.357Z" fill="#FF00F5"/>
<path d="M268.647 207.619C269.716 206.054 270.757 204.772 271.765 203.771C272.857 202.768 273.84 202.13 274.715 201.856C275.671 201.58 276.558 201.628 277.378 201.999C278.698 202.834 279.583 203.925 280.036 205.273C280.489 206.621 280.687 208.741 280.634 211.633C280.582 214.606 280.003 218.561 278.899 223.499C277.793 228.436 276.443 233.303 274.848 238.098C273.541 241.919 270.92 248.358 266.99 257.413C263.057 266.468 259.853 273.491 257.382 278.48L253.32 286.216L253.71 300.05C253.801 306.789 254.138 312.678 254.729 317.712C255.317 322.749 255.948 325.657 256.62 326.434C257.294 327.212 257.273 327.776 256.562 328.122C255.611 328.558 254.751 328.149 253.979 326.893C253.894 326.735 253.849 326.577 253.841 326.417C253.577 325.785 253.303 324.91 253.021 323.797C252.737 322.684 252.493 321.528 252.287 320.332C252.083 319.136 251.869 317.697 251.646 316.02C251.422 314.343 251.243 312.784 251.11 311.345C250.979 309.983 250.836 308.304 250.681 306.303C250.53 304.38 250.39 302.78 250.262 301.502C250.134 300.221 249.994 298.621 249.843 296.698C249.769 294.695 249.675 293.254 249.562 292.374C249.407 292.542 248.902 293.041 248.047 293.875C247.273 294.708 246.729 295.249 246.416 295.5C246.184 295.751 245.718 296.21 245.018 296.876C244.315 297.466 243.725 297.847 243.249 298.027C242.849 298.12 242.333 298.3 241.698 298.564C241.141 298.747 240.58 298.807 240.014 298.747C239.526 298.604 239.034 298.381 238.54 298.08C237.471 297.476 236.705 296.38 236.244 294.791C235.863 293.201 235.796 291.396 236.044 289.38C236.288 287.284 236.885 284.933 237.836 282.331C238.786 279.726 239.722 277.805 240.642 276.567C241.795 275.08 243.281 273.902 245.101 273.032C246.921 272.162 248.361 271.906 249.421 272.27C250.154 272.483 250.598 272.508 250.752 272.34C250.985 272.092 251.201 271.402 251.401 270.269C251.716 267.93 252.277 264.578 253.082 260.213C253.886 255.849 254.734 251.522 255.621 247.235C256.506 242.867 257.266 239.508 257.905 237.156C259.456 231.239 261.294 225.391 263.414 219.613C265.534 213.755 267.277 209.757 268.647 207.619ZM240.738 295.47C241.221 295.452 242.163 294.816 243.566 293.56C245.047 292.221 246.508 290.361 247.949 287.979C249.469 285.514 250.303 283.035 250.452 280.541C250.548 278.771 250.545 277.607 250.444 277.048C250.342 276.492 250.006 276.101 249.434 275.882C247.561 275.308 245.699 276.141 243.85 278.374C242.077 280.528 240.817 283.464 240.069 287.184C239.589 289.451 239.421 291.424 239.564 293.103C239.703 294.705 240.095 295.493 240.738 295.47ZM254.696 274.483C254.776 276.65 257.299 271.899 262.263 260.236C266.404 250.29 269.13 243.486 270.445 239.825C274.969 227.215 277.217 217.218 277.184 209.834C277.227 206.621 276.649 205.117 275.447 205.322C274.808 205.426 274.101 205.973 273.334 206.965C271.713 208.871 269.656 213.081 267.159 219.596C264.742 226.107 262.587 233.13 260.691 240.666C260.067 243.339 259.242 247.222 258.224 252.316C257.206 257.413 256.335 262.181 255.614 266.624C254.97 270.981 254.663 273.601 254.696 274.483ZM301.307 312.989C303.603 314.107 307.451 311.437 312.847 304.977C318.246 298.516 322.883 291.12 326.763 282.789C328.626 278.788 329.841 276.775 330.404 276.755C330.726 276.742 330.975 276.975 331.154 277.449C331.684 278.715 330.181 282.664 326.64 289.298C323.102 295.929 319.41 301.725 315.568 306.684C312.568 310.487 309.89 313.155 307.531 314.686C305.255 316.296 303.065 316.938 300.958 316.614C299.826 316.494 298.629 315.657 297.362 314.097C296.178 312.535 295.182 310.645 294.375 308.426C292.836 303.828 292.35 295.094 292.921 282.228C287.995 290.519 282.41 294.096 276.168 292.96L273.956 291.958C272.967 291.353 272.092 290.581 271.335 289.646C270.576 288.711 269.98 287.891 269.552 287.184C269.203 286.475 268.72 285.407 268.104 283.985L266.625 286.447C265.871 287.841 264.752 289.127 263.266 290.305C261.78 291.484 260.555 292.09 259.589 292.126C258.624 292.161 257.802 291.709 257.123 290.772C256.441 289.754 256.242 288.716 256.524 287.663C257.004 285.397 258.523 282.932 261.083 280.27C263.638 277.527 265.954 275.915 268.031 275.439C269.304 275.07 270.156 275.201 270.581 275.827C271.003 276.371 271.298 277.808 271.464 280.129C271.956 284.687 273.435 287.643 275.899 288.997C279.246 290.238 282.324 289.644 285.133 287.212C287.94 284.7 290.645 280.586 293.253 274.872C293.967 265.854 295.046 256.982 296.494 248.259C297.943 239.536 299.655 232.489 301.632 227.117C303.304 222.319 304.913 219.009 306.457 217.186C308.077 215.28 309.862 214.532 311.809 214.941C313.516 215.36 314.622 216.965 315.128 219.757C315.633 222.548 315.359 226.01 314.306 230.143C311.23 242.78 306.56 254.793 300.299 266.183C299.695 267.248 298.878 269.126 297.85 271.811C297.41 272.952 297.151 273.563 297.073 273.646C296.733 275.346 296.444 279.53 296.21 286.201C295.916 293.519 296.22 299.569 297.123 304.352C298.028 309.216 299.421 312.094 301.307 312.989ZM264.669 282.546C265.039 281.649 265.144 281.245 264.986 281.33C264.905 281.333 264.209 282.042 262.891 283.454C261.191 285.364 260.271 286.643 260.135 287.289C260.165 288.092 261.028 287.498 262.725 285.507C263.573 284.434 264.219 283.446 264.669 282.546ZM311.218 218.576C310.644 218.276 309.897 218.745 308.977 219.983C308.057 221.221 307.038 223.105 305.924 225.635C304.891 228.161 303.908 231.007 302.98 234.173C302.482 235.957 301.825 238.871 301.008 242.915C300.191 246.959 299.489 250.84 298.903 254.553C298.312 258.188 298.033 260.447 298.066 261.327C298.099 262.209 298.72 261.585 299.929 259.454C301.737 256.094 303.701 251.527 305.824 245.749C308.464 238.747 310.29 232.619 311.303 227.363C312.316 222.108 312.289 219.179 311.218 218.576ZM331.521 311.876C333.817 312.997 337.664 310.327 343.061 303.866C348.457 297.405 353.096 290.01 356.974 281.679C358.759 277.677 359.974 275.667 360.615 275.644C360.857 275.634 361.108 275.865 361.367 276.339C361.898 277.602 360.391 281.551 356.853 288.184C353.31 294.738 349.579 300.494 345.656 305.455C342.658 309.339 340.023 312.047 337.742 313.573C335.469 315.183 333.276 315.827 331.171 315.501C330.037 315.303 328.838 314.423 327.57 312.864C326.388 311.382 325.395 309.534 324.588 307.316C322.423 301.053 322.159 288.498 323.796 269.652C325.511 250.724 328.154 236.176 331.722 226.01C333.477 221.209 335.127 217.897 336.668 216.074C338.21 214.171 339.952 213.424 341.901 213.834C343.684 214.17 344.791 215.775 345.221 218.649C345.726 221.44 345.492 224.901 344.517 229.031C341.439 241.588 336.771 253.6 330.512 265.07C329.454 266.955 328.737 268.266 328.362 269.003C327.988 269.74 327.631 270.956 327.289 272.656C326.947 274.273 326.723 275.807 326.615 277.256C326.587 278.703 326.484 281.315 326.3 285.096C326.089 292.409 326.434 298.456 327.336 303.239C328.239 308.103 329.635 310.984 331.521 311.876ZM341.431 217.464C340.853 217.084 340.066 217.554 339.067 218.876C338.147 220.114 337.171 221.996 336.138 224.523C335.104 227.05 334.121 229.896 333.191 233.061C332.406 235.739 331.378 240.593 330.108 247.625C328.838 254.655 328.229 258.852 328.279 260.216C328.312 261.098 328.933 260.472 330.143 258.341C331.87 254.986 333.834 250.417 336.037 244.637C338.595 237.638 340.382 231.512 341.396 226.256C342.487 220.997 342.5 218.067 341.431 217.464ZM400.686 291.388C399.728 293.753 398.946 295.508 398.345 296.653C397.827 297.877 397.299 298.859 396.763 299.602C396.308 300.341 395.916 300.634 395.589 300.487C395.345 300.416 394.975 300.268 394.485 300.045C393.907 299.667 393.56 298.997 393.444 298.037C393.409 297.074 393.529 294.903 393.806 291.521C394.452 280.661 396.034 264.706 398.556 243.66C395.941 253.469 393.308 261.715 390.655 268.396C387.557 276.055 384.266 281.716 380.775 285.377C377.365 288.954 373.473 290.343 369.095 289.541L366.761 288.543C365.773 287.936 364.898 287.167 364.138 286.231C363.381 285.296 362.826 284.474 362.479 283.762C362.129 283.053 361.606 281.99 360.909 280.571L359.431 283.033C358.674 284.344 357.515 285.632 355.951 286.893C354.464 288.072 353.28 288.678 352.395 288.711C351.751 288.734 351.18 288.515 350.68 288.052C350.099 287.59 349.717 287.044 349.531 286.407C349.264 285.695 349.196 284.975 349.33 284.246C349.81 281.982 351.329 279.518 353.889 276.855C356.443 274.11 358.759 272.5 360.837 272.022C362.109 271.656 362.961 271.783 363.386 272.41C363.809 272.957 364.143 274.388 364.39 276.707C364.802 281.27 366.241 284.226 368.705 285.582C372.625 287.041 376.168 285.988 379.339 282.421C382.508 278.851 385.639 273.157 388.732 265.335C393.381 253.926 397.852 237.665 402.142 216.554L402.273 216.79C403.329 210.489 404.332 206.077 405.285 203.554C406.017 201.6 406.651 201.295 407.184 202.641C407.456 203.433 407.528 204.314 407.403 205.282C405.904 216.977 404.254 228.96 402.454 241.229C400.09 257.854 398.461 273.649 397.565 288.613L401.058 281.862C403.912 276.299 406.233 272.681 408.024 271.009C409.895 269.334 411.585 269.311 413.096 270.941C413.513 271.327 413.808 271.718 413.984 272.114C414.24 272.505 414.436 273.461 414.575 274.982C414.788 276.419 414.967 278.018 415.113 279.778C415.256 281.461 415.447 284.424 415.683 288.668C416.586 302.124 417.891 310.224 419.604 312.969C420.459 314.303 420.73 315.135 420.421 315.469C420.195 315.877 419.714 315.937 418.978 315.642C418.246 315.429 417.71 315.088 417.371 314.619C415.065 311.089 413.35 301.76 412.226 286.628C411.746 280.144 411.215 275.587 410.634 272.959C408.71 275.358 407.071 277.868 405.718 280.485C404.363 283.025 402.685 286.658 400.686 291.388ZM355.536 282.213C356.378 281.057 356.984 280.032 357.354 279.134C357.804 278.237 357.95 277.788 357.789 277.795C357.711 277.878 357.014 278.625 355.697 280.039C353.997 281.947 353.076 283.226 352.941 283.872C352.971 284.675 353.836 284.121 355.536 282.213Z" fill="#FF00F5"/>
<path d="M480.651 292.078C480.651 290.117 480.885 288.237 481.358 286.437C481.828 284.635 482.615 283.068 483.714 281.736C484.894 280.403 486.427 279.345 488.313 278.563C490.199 277.778 492.556 277.387 495.385 277.387C498.214 277.387 500.532 277.778 502.34 278.563C504.226 279.345 505.717 280.403 506.819 281.736C507.918 283.068 508.705 284.635 509.175 286.437C509.648 288.237 509.884 290.117 509.884 292.078C509.884 294.191 509.648 296.152 509.175 297.952C508.705 299.755 507.918 301.321 506.819 302.653C505.717 303.986 504.226 305.004 502.34 305.709C500.532 306.493 498.214 306.885 495.385 306.885C492.556 306.885 490.199 306.493 488.313 305.709C486.427 305.004 484.894 303.986 483.714 302.653C482.615 301.321 481.828 299.755 481.358 297.952C480.885 296.152 480.651 294.191 480.651 292.078Z" fill="#FF00F5"/>
</svg>
